<svg width="8" height="13" viewBox="0 0 8 13" fill="none" xmlns="http://www.w3.org/2000/svg">
<path
        d="M6.51733 6.58041L6.87089 6.93397C7.06615 6.73871 7.06615 6.42212 6.87089 6.22686L6.51733 6.58041ZM0.338433 12.0522C0.143171 12.2475 0.143171 12.5641 0.338433 12.7593C0.533695 12.9546 0.850278 12.9546 1.04554 12.7593L0.338433 12.0522ZM1.04554 0.401513C0.850279 0.206251 0.533696 0.206251 0.338434 0.401513C0.143172 0.596775 0.143172 0.913357 0.338434 1.10862L1.04554 0.401513ZM6.16378 6.22686L0.338433 12.0522L1.04554 12.7593L6.87089 6.93397L6.16378 6.22686ZM6.87089 6.22686L1.04554 0.401513L0.338434 1.10862L6.16378 6.93397L6.87089 6.22686Z" fill="currentColor"/>
</svg>
